<?xml version="1.0" encoding="UTF-8" standalone="no"?>
<svg
   width="16"
   height="16"
   version="1.1"
   id="svg1"
   sodipodi:docname="weather-clear-symbolic.svg"
   inkscape:export-filename="01d.png"
   inkscape:export-xdpi="600"
   inkscape:export-ydpi="600"
   inkscape:version="1.3.2 (091e20ef0f, 2023-11-25)"
   xmlns:inkscape="http://www.inkscape.org/namespaces/inkscape"
   xmlns:sodipodi="http://sodipodi.sourceforge.net/DTD/sodipodi-0.dtd"
   xmlns="http://www.w3.org/2000/svg"
   xmlns:svg="http://www.w3.org/2000/svg">
  <defs
     id="defs1" />
  <sodipodi:namedview
     id="namedview1"
     pagecolor="#ffffff"
     bordercolor="#000000"
     borderopacity="0.25"
     inkscape:showpageshadow="2"
     inkscape:pageopacity="0.0"
     inkscape:pagecheckerboard="0"
     inkscape:deskcolor="#d1d1d1"
     inkscape:zoom="44.4375"
     inkscape:cx="8.0112518"
     inkscape:cy="8"
     inkscape:window-width="1262"
     inkscape:window-height="1332"
     inkscape:window-x="1286"
     inkscape:window-y="60"
     inkscape:window-maximized="1"
     inkscape:current-layer="svg1" />
  <path
     d="m8 0-0.5 1.0293c0.17-0.01 0.33-0.029297 0.5-0.029297s0.33 0.019297 0.5 0.029297l-0.5-1.0293zm0 2c-3.31 0-6 2.68-6 6 0 3.31 2.69 6 6 6s6-2.69 6-6c0-3.32-2.69-6-6-6zm-5.6602 0.33984 0.38086 1.0898c0.22-0.25 0.46875-0.49875 0.71875-0.71875l-1.0996-0.37109zm11.32 0-1.0996 0.37109c0.25 0.22 0.49875 0.46875 0.71875 0.71875l0.38086-1.0898zm-5.6602 1.6602a4 4 0 0 1 4 4 4 4 0 0 1-4 4 4 4 0 0 1-4-4 4 4 0 0 1 4-4zm-6.9707 3.5-1.0293 0.5 1.0293 0.5c-0.01-0.17-0.029297-0.34-0.029297-0.5 0-0.17 0.019297-0.34 0.029297-0.5zm13.941 0c0.01 0.16 0.029297 0.33 0.029297 0.5 0 0.16-0.019297 0.33-0.029297 0.5l1.0293-0.5-1.0293-0.5zm-12.25 5.0605-0.38086 1.0898 1.0996-0.37109c-0.25-0.22-0.49875-0.46875-0.71875-0.71875zm10.559 0c-0.22 0.25-0.46875 0.49875-0.71875 0.71875l1.0996 0.37109-0.38086-1.0898zm-5.7793 2.4004 0.5 1.0391 0.5-1.0391c-0.17 0.019999-0.33 0.039062-0.5 0.039062s-0.33-0.019062-0.5-0.039062z"
     fill="#aaaaaa"
     id="path1" />
</svg>
