<?xml version="1.0" encoding="UTF-8" standalone="no"?>
<svg
   width="16"
   height="16"
   version="1.1"
   id="svg2"
   sodipodi:docname="weather-storm-symbolic.svg"
   inkscape:export-filename="11d.png"
   inkscape:export-xdpi="600"
   inkscape:export-ydpi="600"
   inkscape:version="1.3.2 (091e20ef0f, 2023-11-25)"
   xmlns:inkscape="http://www.inkscape.org/namespaces/inkscape"
   xmlns:sodipodi="http://sodipodi.sourceforge.net/DTD/sodipodi-0.dtd"
   xmlns="http://www.w3.org/2000/svg"
   xmlns:svg="http://www.w3.org/2000/svg">
  <defs
     id="defs2" />
  <sodipodi:namedview
     id="namedview2"
     pagecolor="#ffffff"
     bordercolor="#000000"
     borderopacity="0.25"
     inkscape:showpageshadow="2"
     inkscape:pageopacity="0.0"
     inkscape:pagecheckerboard="0"
     inkscape:deskcolor="#d1d1d1"
     inkscape:zoom="35.625"
     inkscape:cx="8"
     inkscape:cy="7.9859649"
     inkscape:window-width="1262"
     inkscape:window-height="1332"
     inkscape:window-x="1286"
     inkscape:window-y="60"
     inkscape:window-maximized="1"
     inkscape:current-layer="svg2" />
  <path
     d="m6 7v5h1v4l3-5h-1l1.5-4z"
     color="#000000"
     fill="#aaaaaa"
     stroke-width="2"
     style="-inkscape-stroke:none"
     id="path1" />
  <path
     d="m8.5996 0c-2.0961 0.0034-3.8046 1.2776-4.7988 3l-0.066406 0.078125-0.1543 0.044922c-2.0147 0.41479-3.5352 2.1952-3.5352 4.3535 0 2.4525 1.9306 4.5234 4.3574 4.5234h0.59766v-2h-0.59766c-1.2868 0-2.3555-1.1055-2.3555-2.5234 0-1.3542 0.99177-2.4161 2.1973-2.5039l0.70898-0.050781 0.30273-0.65234v-0.00195c0.6204-1.3579 1.875-2.2662 3.3496-2.2676h0.00391c1.998 0.0014 3.6325 1.6653 3.7285 3.8125v0.015625l0.05664 0.75195 0.67774 0.28906c0.5896 0.25166 0.97461 0.83437 0.97461 1.4941-3.8e-6 0.9265-0.69663 1.6367-1.5195 1.6367h-0.76172l-1.1992 2h1.9609c1.9632 0 3.5176-1.6723 3.5176-3.6367 0-1.2388-0.71478-2.2929-1.7344-2.9531l-0.060547-0.050781-0.042969-0.18164c-0.3954-2.8718-2.6837-5.1757-5.5996-5.1777z"
     fill="#aaaaaa"
     style="-inkscape-stroke:none;paint-order:markers fill stroke"
     id="path2" />
</svg>
