<?xml version="1.0" encoding="UTF-8" standalone="no"?>
<svg
   width="16"
   height="16"
   version="1.1"
   id="svg1"
   sodipodi:docname="weather-clear-night-symbolic.svg"
   inkscape:export-filename="01n.png"
   inkscape:export-xdpi="600"
   inkscape:export-ydpi="600"
   inkscape:version="1.3.2 (091e20ef0f, 2023-11-25)"
   xmlns:inkscape="http://www.inkscape.org/namespaces/inkscape"
   xmlns:sodipodi="http://sodipodi.sourceforge.net/DTD/sodipodi-0.dtd"
   xmlns="http://www.w3.org/2000/svg"
   xmlns:svg="http://www.w3.org/2000/svg">
  <defs
     id="defs1" />
  <sodipodi:namedview
     id="namedview1"
     pagecolor="#ffffff"
     bordercolor="#000000"
     borderopacity="0.25"
     inkscape:showpageshadow="2"
     inkscape:pageopacity="0.0"
     inkscape:pagecheckerboard="0"
     inkscape:deskcolor="#d1d1d1"
     inkscape:zoom="35.625"
     inkscape:cx="8"
     inkscape:cy="7.9859649"
     inkscape:window-width="1262"
     inkscape:window-height="1332"
     inkscape:window-x="1286"
     inkscape:window-y="60"
     inkscape:window-maximized="1"
     inkscape:current-layer="svg1" />
  <path
     d="m7.834 1.334c-3.776 0-6.834 3.0753-6.834 6.834-2.6e-7 3.7621 3.0719 6.832 6.834 6.832 1.91 0 3.6349-0.88091 4.8945-2.2188a1.0001 1.0001 0 0 0-0.97461-1.6543c-0.47715 0.12159-0.74992 0.20703-1.0039 0.20703-2.4511 0-4.416-1.9649-4.416-4.416a1.0001 1.0001 0 0 0 0-0.00391c-0.0040203-1.5141 0.76388-2.9219 2.0391-3.7383a1.0001 1.0001 0 0 0-0.53906-1.8418zm-2.8477 3.0195c-0.35599 0.80844-0.65448 1.6545-0.65234 2.5645 0 2.7112 1.712 5.0089 4.0996 5.9453-0.20423 0.03016-0.38953 0.13672-0.59961 0.13672-2.6812 0-4.834-2.1508-4.834-4.832 0-1.5966 0.80691-2.9362 1.9863-3.8145z"
     color="#000000"
     fill="#aaaaaa"
     stroke-linecap="round"
     stroke-linejoin="round"
     style="-inkscape-stroke:none"
     id="path1" />
</svg>
